<?xml version="1.0" encoding="UTF-8"?><svg xmlns="http://www.w3.org/2000/svg" viewBox="0 0 1540 500"><defs><style>.k,.l{fill:#fff;}.m{fill:#e30016;}.l{font-family:Coves-Bold, Coves;font-size:100px;letter-spacing:-.03em;}</style></defs><g id="a"/><g id="b"/><g id="c"/><g id="d"><g><text class="l" transform="translate(712.17 218.42)"><tspan x="0" y="0">Kyokushin Karaté</tspan><tspan x="0" y="120">club Goderville</tspan></text><g><circle class="m" cx="460.56" cy="248.1" r="222.82"/><path class="k" d="M407.19,128.67c0-6.87,14.12-9.27,18.97-9.27s8.61,1.12,11.88,3.35c3.26,2.23,5.82,5.22,7.68,8.94,.56,1.12,1.02,2.1,1.4,2.93,.37,.84,.6,1.82,.7,2.93,.09,1.12,.14,2.56,.14,4.33s-.1,4.15-.28,7.12c-.19,5.03-.65,10.06-1.4,15.09-.75,5.03-2.05,10.85-3.91,17.46-1.86,6.61-4.29,14.44-7.27,23.47-2.98,9.04-6.8,19.98-11.46,32.83-3.35,9.13-6.2,17-8.52,23.61-2.33,6.61-3.49,10.02-3.49,10.2s.88-.14,2.66-.98c1.77-.84,3.95-1.96,6.57-3.35,2.61-1.4,5.31-2.89,8.1-4.47,2.79-1.58,5.21-3.03,7.27-4.33,1.86-1.12,4.51-2.98,7.96-5.59,3.44-2.61,7.36-5.68,11.74-9.22,4.38-3.54,8.99-7.31,13.83-11.32,4.84-4,9.68-8.06,14.53-12.16,6.33-5.4,12.99-11.46,19.98-18.16,6.99-6.71,13.64-13.41,19.98-20.12,6.33-6.71,12.02-12.99,17.05-18.86,5.03-5.87,8.75-10.66,11.18-14.39,3.17-4.84,5.73-9.5,7.68-13.97,1.96-4.47,2.93-7.73,2.93-9.78,0-2.79,.46-4.75,1.4-5.87,.93-1.12,2.1-1.44,3.49-.98,1.4,.47,2.84,1.63,4.33,3.49,1.49,1.86,2.7,4.38,3.63,7.54,2.05,5.96,2.89,10.95,2.52,14.95-.38,4.01-1.86,8.8-4.47,14.39-2.05,4.29-5.5,9.46-10.34,15.51-4.85,6.06-10.53,12.53-17.05,19.42-6.52,6.89-13.55,13.79-21.1,20.68-7.54,6.89-15.05,13.32-22.49,19.28-4.85,3.73-9.22,6.94-13.13,9.64-3.91,2.7-8.1,5.31-12.57,7.82s-9.55,5.17-15.23,7.96c-5.69,2.79-12.71,6.06-21.1,9.78l-10.9,5.03,7.82,1.68c5.03,.93,9.31,2.1,12.85,3.49,3.54,1.4,7.45,3.49,11.74,6.29,8.57,5.4,15.74,12.11,21.52,20.12,1.49,2.24,2.84,4.19,4.05,5.87,1.21,1.68,2.33,3.49,3.35,5.45,1.02,1.96,2.14,4.15,3.35,6.57,1.21,2.42,2.56,5.4,4.05,8.94,4.65,9.88,8.99,17.84,12.99,23.89,4,6.05,7.41,9.82,10.2,11.32,1.12,.56,2.24,.93,3.35,1.12,1.12,.18,2.7,.09,4.75-.28,5.96-.93,6.89,.37,2.79,3.91-6.15,5.77-14.16,7.54-24.03,5.31-1.49-.38-3.49-.98-6.01-1.82-2.52-.84-4.71-1.72-6.57-2.65-3.91-1.86-7.45-4.01-10.62-6.43-3.17-2.42-6.29-5.5-9.36-9.22-3.07-3.72-6.2-8.15-9.36-13.27-3.17-5.12-6.52-11.32-10.06-18.58-2.98-5.77-5.5-10.57-7.55-14.39-2.05-3.82-3.82-6.99-5.31-9.5-1.49-2.52-2.89-4.56-4.19-6.15-1.31-1.58-2.61-3.12-3.91-4.61-8.2-8.57-16.3-11.36-24.31-8.38-1.31,.38-2.47,.89-3.49,1.54-1.03,.65-1.63,1.17-1.82,1.54-.19,.38-1.21,3.12-3.07,8.24-1.86,5.13-4.1,11.04-6.71,17.74-5.03,13.41-9.13,24.13-12.29,32.13-3.17,8.01-5.87,14.2-8.1,18.58-2.24,4.38-4.24,7.36-6.01,8.94-1.77,1.58-3.77,2.65-6.01,3.21-2.79,.74-6.15,.65-10.06-.28-3.91-.93-6.8-2.23-8.66-3.91-1.12-1.12-1.91-2.42-2.37-3.91-.47-1.49-.56-3.54-.28-6.15,.28-2.61,.98-5.91,2.1-9.92,1.12-4,2.61-9.08,4.47-15.23,6.52-20.3,14.67-42.52,24.45-66.64,9.78-24.12,21.38-51,34.79-80.62,7.45-16.21,12.76-28.5,15.93-36.88,3.17-8.38,4.84-14.53,5.03-18.44,0-2.98-1.31-4.47-3.91-4.47-2.42,.19-4.59,1.17-7.62,2.68,0,0-10.78,3.59-10.78-1.8Z"/></g><path class="k" d="M328.23,383.79c-.24,.27-.44,.39-.46,.54-1.39,7.5-6.82,11.49-12.89,14.98-5.53,3.18-11.02,6.42-16.52,9.66-.81,.48-1.55,1.1-2.97,2.12,3.24,1.1,5.81,2.01,8.4,2.85,3.84,1.24,7.69,2.47,11.55,3.65,8.47,2.59,12.52,8.25,12.83,17.13,.14,3.98-.75,6.62-4.42,8.47-5.56,2.79-10.08,7.05-13.71,11.98-5.42,7.36-10.62,14.92-15.37,22.73-2.24,3.68-3.41,8.07-4.69,12.25-1.6,5.21-5.77,7.93-10.92,6.36-4.85-1.48-8.01-4.99-9.02-9.85-.6-2.9-1.95-4.77-4.32-6.06-1.97-1.07-4.05-1.92-6.11-2.81-2.38-1.04-4.85-1.92-7.18-3.06-5.29-2.6-6.98-5.35-6.16-11.21,.44-3.13,1.66-6.2,2.91-9.15,.55-1.3,1.82-2.7,3.1-3.21,3.52-1.42,5.51-4.2,7.4-7.18,2.31-3.64,4.52-7.35,6.92-10.93,2.52-3.77,5.35-7.23,10.01-8.6,.75-.22,1.34-.99,2-1.51l-.24-.93c-1.17,.08-2.48-.15-3.5,.28-4.55,1.92-9.01,4.04-13.52,6.05-1.72,.77-3.49,1.41-5.22,2.17-3.69,1.61-6.63,.52-9.05-2.48-.57-.7-1.14-1.4-1.64-2.14-3.47-5.08-3.67-6.91,.51-11.39,6.68-7.15,13.69-13.99,20.73-20.78,1.66-1.6,4.02-2.46,6.05-3.66l.66,.64c-.38,.92-.69,1.88-1.16,2.75-.93,1.74-2.09,3.37-2.91,5.15-1.03,2.26-.16,3.46,2.33,3.38,2.62-.09,4.25-1.7,5.49-3.82,1.65-2.82,2.23-6.61,1.7-11.54-2.18,.12-4.38,.29-6.58,.36-1.89,.06-3.78,.11-5.66-.02-5.22-.37-6.51-1.65-8.26-8.22-1.1,.93-2.21,1.63-3,2.58-7.11,8.58-14.36,17.05-21.2,25.85-8.32,10.72-16.1,21.86-24.5,32.51-2.59,3.28-6.29,5.78-9.77,8.23-2.4,1.69-5.08,.99-7.09-1.15-4.5-4.8-6.91-10.32-4.97-16.97,2.12-7.27,4.88-14.23,9.41-20.44,2.53-3.47,4.38-7.42,6.67-11.08,5.19-8.3,10.45-16.56,15.71-24.81,.51-.79,1.27-1.43,2.41-2.69,1.94,6.93,.12,13.42,1.19,20.19,1.24-.7,2.52-1.14,3.41-1.98,5.02-4.75,10.42-9.2,14.8-14.49,8.7-10.52,16.91-21.46,25.14-32.37,3.36-4.45,2.59-5.82-2.97-6.41-2.7-.29-5.4-.54-8.1-.81l-.22-.99c.9-.58,1.72-1.39,2.7-1.7,2.4-.74,4.84-1.46,7.31-1.8,3.14-.43,5.58-1.81,7.5-4.26,7.78-9.87,7.2-9.42,1.58-21.16-7.86,2.86-15.8,5.63-23.65,8.66-3.88,1.49-5.77,4.76-6.21,8.79-.78,7.24-1.34,14.5-2.24,21.72-.29,2.36-1.32,4.64-2.01,6.95h-1.05c-.74-1.18-1.63-2.28-2.18-3.54-2.45-5.59-4.76-11.24-7.2-16.83-1.57-3.59-1.61-3.53-5.17-2.03-1.49,.63-3.02,1.18-4.58,1.59-4.13,1.08-7.57,3.24-10.47,6.32-.49,.52-.99,1.04-1.5,1.55-4.68,4.61-7.66,4.25-10.49-1.61-1.55-3.21-2.78-6.65-3.58-10.11-.48-2.08-.3-4.54,.33-6.6,1.84-6.01,5.11-11.28,9.58-15.73,2.43-2.42,3.89-2.57,6.62-.5,2.13,1.62,3.99,3.6,6.15,5.58,2.01-1.27,4.23-2.46,6.16-4.01,.71-.57,1.03-1.97,1.06-3,.36-15.91,.57-31.83,.97-47.74,.89-35.87,1.86-71.74,2.79-107.61,.05-1.85,0-3.7,0-5.55l-.75-.22c-.8,1.41-1.82,2.74-2.37,4.24-2.76,7.49-5.42,15.01-8.07,22.53-1.88,5.33-3.55,10.74-5.59,16.01-.99,2.55-2.61,4.86-4,7.4-6-4.34-9.12-9.93-10.41-16.71-.46-2.45-1.08-4.94-2.11-7.19-1.49-3.25-1.71-6.46-.37-9.66,2.98-7.12,5.96-14.24,9.23-21.23,9.07-19.35,18.3-38.63,27.45-57.94,.69-1.46,1.42-2.93,1.84-4.48,.25-.94-.07-2.03-.13-3.05-1,.17-2.14,.1-2.96,.58-1.22,.71-2.24,1.78-3.3,2.75-1.73,1.57-3.32,3.3-5.14,4.76-3.7,2.96-7.07,2.49-9.44-1.65-1.45-2.52-2.42-5.42-3.06-8.27-1.43-6.39-2.59-12.86-3.69-19.32-.21-1.21-.08-3.09,.66-3.66,.73-.56,2.56-.11,3.69,.38,2.88,1.25,5.61,2.83,8.45,4.18,3.67,1.75,7.21,1.4,10.36-1.18,2.64-2.16,5.17-4.47,7.65-6.81,.5-.47,.81-1.41,.78-2.12-.31-7.63-.68-15.26-1.09-22.89-.05-.98-.31-1.96-.59-2.9-2.28-7.48,4.77-17.71,12.61-18.25,3.61-.25,6.77,1.88,7.85,5.26,.16,.5,.28,1.36,.57,1.43,4.05,.98,5.08,5.5,8.46,7.18,2.46,1.22,5.21,1.94,7.51,3.4,2.59,1.63,4.84,3.81,7.21,5.8,2.35,1.97,2.33,3.97,.75,6.69-5.75,9.92-13.93,17.31-23.47,23.33-5.06,3.19-8.5,11.48-6.8,17.26,.75,2.55,2.47,3.16,4.66,1.54,1.15-.85,2.29-1.77,3.28-2.8,11.9-12.51,23.81-25.01,35.63-37.59,4.92-5.24,8.52-11.32,10.83-18.16,.51-1.52,1.15-3.03,1.94-4.43,1.61-2.84,3.39-3.14,5.9-1.07,3.15,2.6,5.1,6,6.34,9.83,2.38,7.4,2.67,15.02,1.99,22.68-.41,4.64-3.15,8-6.56,11.07-3.44,3.1-6.48,6.65-9.67,10.02-2.21,2.34-4.39,4.72-6.7,7.21,1.43,1.78,2.94,3.65,4.67,5.78,.79-.72,1.48-1.36,2.18-1.99,4.4-3.98,8.75-8.02,13.21-11.92,2.67-2.33,5.57-2.47,8.68-.57,6.23,3.8,10.1,9.03,10.61,16.5,.26,3.78-1,7.07-3.11,10.1-2.61,3.77-5.31,7.48-7.88,11.27-1.31,1.93-2.49,3.95-3.62,5.99-1.63,2.96-1.42,5.79,.64,8.56,3.31,4.47,4.19,9.67,4.02,15.07-.11,3.57-1.49,4.91-5.02,5.56-1.05,.19-2.18,.33-3.1,.82-8.55,4.56-17.12,9.07-25.54,13.86-3.51,2-3.29,4,.18,6.11,.61,.37,1.27,.67,1.92,.98,5.18,2.49,6.21,6.35,2.84,11.11-1.27,1.8-2.78,3.43-4.31,5.29,5.04,.59,8.26-2.07,8.53-6.68,.08-1.34,.06-2.73,.39-4.02,.45-1.74,1.63-2.03,3.05-.94,2.7,2.06,5.37,4.16,8.06,6.24,.64,.5,1.31,.96,1.94,1.46,5.8,4.7,6.39,9.03,2.01,15.14-1.1,1.53-2.35,2.95-3.55,4.41-1.65,2.01-3.82,2.86-6.4,2.91-2.6,.05-5.21,.16-7.8,.41-3,.29-5.29,1.9-6.6,4.55-3.8,7.64-5.9,15.78-6.67,24.27-.04,.41,.14,.85,.32,1.87,2.3-1.98,4.6-3.45,6.24-5.46,5.7-6.99,12.62-8.24,20.72-5.03,2.75,1.09,5.69,1.79,8.26,3.19,5.23,2.87,6.85,7.71,4.87,13.32-.12,.34-.18,.72-.38,1-4.78,6.73-3.97,14.08-2.97,21.71,.84,6.39,.52,12.92,.71,19.39,.03,1.05,0,2.1,0,3.27,5.54-1.19,10.69-2.35,15.87-3.4,5.98-1.21,10.53,1.03,13.93,5.95,3.07,4.43,5.19,9.25,5.75,14.64,.14,1.38,.19,3.1-.48,4.19-4.72,7.62-10.2,14.68-19.72,16.2-4.9,.79-10.02,.33-15.03,.26-.93-.01-1.85-.85-2.77-1.31,.53-.87,.86-2.01,1.62-2.55,5.44-3.83,7.77-9.72,10.85-15.76-3.5,.74-6.59,1.24-9.6,2.06-7.18,1.97-14.33,4.09-21.48,6.15-.52,.15-1.08,.26-1.51,.55-.91,.62-1.75,1.36-2.62,2.04,.95,.71,1.8,1.65,2.85,2.1,2.56,1.07,5.27,1.78,7.83,2.86,4.18,1.77,4.57,2.66,4.58,7.17,.01,6.55-2.92,11.13-8.83,13.87-2.18,1.01-4.36,2.02-6.52,3.55,2.81,.28,5.62,.55,8.43,.83,6.17,.61,12.36,1.11,18.51,1.88,9.63,1.19,17.79,5.97,25.78,11.04,4.32,2.74,8.58,5.59,12.97,8.22,6.5,3.89,9.61,10.04,8.37,17.52-.2,1.18-1.53,2.12-2.01,3.31-2.01,5.01-5.86,7.3-10.92,8.72-4.81,1.35-9.41,3.55-13.95,5.68-4.23,1.98-8.36,2.47-12.75,.74-1.65-.65-3.4-1.03-5.06-1.52Zm-57.42-178.9c-2.86,.9-5.32,1.61-7.74,2.45-2.02,.69-3.72,.39-5.09-1.27-2.07-2.48-4.26-4.88-6.11-7.51-2.15-3.05-1.99-3.9,.76-6.42,3.28-3,5.47-6.58,6.61-10.89,1.47-5.56,4.17-10.48,8-14.8,3.28-3.7,5.41-8.03,6.62-12.8,.28-1.08,.24-2.24,.43-4.2-2.25,1.24-3.88,2.06-5.43,3.01-6.26,3.79-10.73,2.67-13.69-4.06-1.52-3.47-2.48-7.33-2.92-11.1-.62-5.27,2.55-8.47,7.85-8.74,3.59-.18,7.19-.24,10.76-.57,3.36-.31,6.25-1.76,8.08-4.73,2.75-4.44,3.58-9.36,3.15-14.48-.07-.85-1.14-2.32-1.64-2.28-1.16,.1-2.59,.69-3.28,1.58-.69,.89-.76,2.36-.87,3.59-.25,2.86-.26,5.75-.54,8.61-.34,3.38-2,5.52-4.89,5.44-3.71-.1-7.46-.7-11.1-1.51-2.53-.56-3.98-2.56-4.43-5.23-.38-2.3-1-4.56-1.46-6.85-.67-3.34-.74-6.65,1.07-9.69,3.21-5.4,6.36-10.86,9.81-16.11,2.97-4.52,6.67-4.32,9.7,.27,.97,1.47,1.75,3.06,2.64,4.63,.95-.36,1.71-.62,2.46-.93,3.51-1.45,4-1.99,3.26-5.64-.56-2.78-1.12-5.87-2.71-8.06-3.8-5.22-2.04-9.84,.61-14.52,1.29-2.29,3.34-3.77,6.12-3.84,2.52-.06,4.23-1.32,5.37-3.46,.92-1.74,1.9-3.47,2.63-5.3,.42-1.05,.4-2.27,.57-3.42l-.99-.67c-1.93,1.61-4.16,2.97-5.75,4.86-8.14,9.7-16.36,19.35-24.08,29.38-6.9,8.97-13.02,18.52-17.06,29.23-4,10.61-4.56,21.78-5.03,32.9-1.76,41.43-2.56,82.86,.98,124.25,.59,6.88,1.7,13.73,2.75,20.56,.52,3.39,1.84,4.12,5.1,3.13,2.4-.73,4.74-1.66,7.09-2.56,2.55-.97,5.08-2.01,7.59-3.01-.29-.76-.35-1.15-.56-1.43-5.34-7.35-4.58-14.82-.95-22.65,1.44-3.11,2.26-6.67,2.59-10.1,1.26-12.88,2.22-25.78,3.28-38.68,.16-1.95,.27-3.9,.44-6.4Zm4.79,151.81c.67,1.63,.91,3.72,1.85,4.11,.99,.4,2.67-.79,3.99-1.4,.55-.25,.99-.78,1.42-1.22,2.83-2.88,5.61-5.83,8.51-8.64,.68-.66,1.83-1.33,2.69-1.24,4.82,.5,9.65,1.04,14.4,1.94,3.9,.74,6.59,3.51,7.91,7.05,1.15,3.09-1.85,4.75-3.64,6.61-2.12,2.19-4.63,4.01-6.64,6.29-2.85,3.23-2.16,4.95,2,5.75,.88,.17,1.78,.21,2.67,.34,5.04,.74,10.18,.89,14.83,3.5,.74,.42,2.71-.21,3.37-.98,3.18-3.77,6.22-7.67,9.09-11.68,2.26-3.17,1.96-4.72-1.31-6.94-3.64-2.46-7.45-4.67-11.22-6.94-11.39-6.88-23.7-11.07-36.95-12.39-.92-.09-2.23,.21-2.81,.83-2.49,2.71-4.95,5.48-7.06,8.48-1.34,1.91-2.05,4.27-3.09,6.53Zm5.66,86.98l-1.13-.54c-5.3,6.46-9.72,13.48-12.89,21.25-.27,.67-.13,2.12,.32,2.39,3.03,1.81,6.17,3.47,9.36,5.01,.54,.26,1.65-.1,2.23-.54,3.6-2.69,6.05-6.33,8.19-10.22-.73,.09-1.28,.34-1.83,.6-5.05,2.44-9.81-.54-9.8-6.15,0-3.27,1.78-5.72,3.67-8.17,.82-1.07,1.28-2.42,1.9-3.64Zm22.98-219.06c-5.26,2.75-8.87,6.56-12.49,11.36,1.23,.07,1.67,.2,2.06,.11,3.68-.87,6.34,.77,8.31,3.62,1.63,2.35,2.95,4.91,4.43,7.37,.54,.9,1.13,1.77,1.7,2.66l.71-.35c-1.54-8.08-3.08-16.16-4.72-24.77Zm6.96-145.57c-5.58,2.77-13.54,16.1-13.15,22.03,.08,1.2,.77,2.36,1.23,3.66,4.63-3.02,13.32-22.03,11.93-25.69Zm-25.55,192.76c5.43-4.41,5.64-12.49,.9-16.78-1.6-1.45-2.56-.54-2.86,1.02-1.04,5.34-.08,10.44,1.96,15.76Zm16.39,158.81l-1.05,.11c-1.56,5.32-3.11,10.64-4.67,15.96,2.89-1.77,5.24-3.83,7.48-6.01,.52-.5,1.07-1.51,.91-2.09-.76-2.7-1.76-5.32-2.67-7.97Zm7.17-174.45l-.51-.04c-1.61,4.55-3.29,9.07-4.77,13.66-.25,.78,.04,2.37,.58,2.65,2.33,1.2,4.62-.2,4.68-2.83,.11-4.48,.03-8.96,.03-13.44ZM263,18.78c-3.47-1.73-6.56-1.54-8.03,.01-1.73,1.83-2.57,6.36-1.22,8.97,3.07-2.98,6-5.82,9.26-8.98Zm33.98,369.13l.75,.51c1.17-.52,2.56-.8,3.45-1.62,.86-.8,1.85-2.33,1.61-3.22-.34-1.28-1.7-2.32-2.76-3.33-.15-.14-1.42,.41-1.54,.82-.61,2.25-1.03,4.56-1.51,6.84Zm-21.35-217.38c-1.71,2.87-4.42,4.61-3.82,8.13,3.15-1.53,4.37-4.04,3.82-8.13Z"/></g></g><g id="e"/><g id="f"/><g id="g"/><g id="h"/><g id="i"/><g id="j"/></svg>