<?xml version="1.0" encoding="UTF-8"?><svg xmlns="http://www.w3.org/2000/svg" viewBox="0 0 1540 500"><defs><style>.n,.o{fill:#fff;}.p{fill:#abaf9c;}.q,.r{fill:#e30016;}.r{fill-rule:evenodd;}.o{font-family:Coves-Bold, Coves;font-size:95.97px;letter-spacing:-.03em;}</style></defs><g id="a"/><g id="b"/><g id="c"/><g id="d"/><g id="e"/><g id="f"/><g id="g"><rect class="p" x="-.78" y=".95" width="1540" height="500"/><g><path class="r" d="M464.97,171.54c44.23,0,80.12,35.89,80.12,80.12s-35.89,80.09-80.12,80.09m207.17-24.47c-23.17,86.42-98.96,151.32-190.91,158.24,23.17-86.42,98.96-151.35,190.91-158.24ZM481.23,37.8c91.95,6.89,167.74,71.82,190.91,158.24-91.95-6.89-167.74-71.82-190.91-158.24Z"/><text class="o" transform="translate(708.2 223.74)"><tspan x="0" y="0">Kyokushin Karaté</tspan><tspan x="0" y="115.16">club Goderville</tspan></text><path class="q" d="M466.73,465.5c-118.1,0-213.84-95.74-213.84-213.84S348.63,37.82,466.73,37.82"/><path class="n" d="M339.74,382.45c-.23,.26-.42,.37-.45,.52-1.34,7.2-6.55,11.03-12.37,14.38-5.31,3.05-10.58,6.16-15.85,9.27-.78,.46-1.48,1.05-2.85,2.03,3.11,1.06,5.58,1.93,8.06,2.73,3.69,1.19,7.38,2.37,11.09,3.5,8.13,2.48,12.02,7.92,12.31,16.44,.13,3.82-.72,6.36-4.25,8.13-5.34,2.68-9.67,6.76-13.16,11.5-5.2,7.07-10.19,14.32-14.75,21.81-2.15,3.53-3.27,7.75-4.5,11.76-1.54,5-5.54,7.61-10.48,6.1-4.66-1.42-7.69-4.79-8.65-9.46-.57-2.78-1.87-4.58-4.15-5.82-1.89-1.02-3.89-1.84-5.86-2.7-2.29-1-4.65-1.84-6.89-2.94-5.07-2.5-6.7-5.14-5.91-10.75,.42-3.01,1.6-5.95,2.79-8.78,.53-1.25,1.75-2.59,2.97-3.08,3.38-1.37,5.29-4.03,7.1-6.89,2.22-3.49,4.34-7.05,6.64-10.49,2.42-3.62,5.14-6.94,9.6-8.25,.72-.21,1.29-.95,1.92-1.45l-.23-.89c-1.13,.07-2.38-.14-3.36,.27-4.37,1.84-8.65,3.87-12.97,5.8-1.65,.74-3.35,1.36-5.01,2.08-3.55,1.55-6.36,.5-8.69-2.38-.54-.67-1.09-1.34-1.58-2.05-3.33-4.87-3.53-6.63,.49-10.93,6.41-6.86,13.14-13.43,19.9-19.94,1.59-1.53,3.86-2.36,5.81-3.51l.63,.62c-.37,.88-.67,1.8-1.12,2.64-.9,1.67-2.01,3.23-2.79,4.95-.99,2.17-.15,3.32,2.24,3.24,2.51-.08,4.08-1.63,5.27-3.66,1.58-2.71,2.14-6.34,1.64-11.07-2.09,.12-4.2,.28-6.32,.35-1.81,.06-3.63,.11-5.43-.02-5.01-.36-6.25-1.58-7.93-7.89-1.06,.9-2.12,1.56-2.88,2.48-6.83,8.23-13.79,16.36-20.34,24.81-7.99,10.29-15.45,20.98-23.52,31.2-2.48,3.15-6.04,5.55-9.38,7.89-2.3,1.62-4.88,.95-6.8-1.1-4.32-4.6-6.64-9.9-4.77-16.29,2.03-6.97,4.68-13.65,9.03-19.62,2.43-3.33,4.2-7.12,6.4-10.63,4.98-7.96,10.03-15.89,15.08-23.81,.49-.76,1.21-1.37,2.31-2.58,1.87,6.65,.11,12.88,1.14,19.38,1.19-.67,2.42-1.09,3.27-1.9,4.82-4.56,10-8.83,14.2-13.9,8.35-10.1,16.23-20.6,24.13-31.06,3.23-4.28,2.49-5.59-2.85-6.15-2.59-.27-5.18-.52-7.78-.77l-.21-.95c.86-.56,1.65-1.34,2.6-1.63,2.3-.71,4.64-1.4,7.02-1.73,3.01-.42,5.35-1.74,7.2-4.09,7.47-9.47,6.91-9.04,1.52-20.31-7.54,2.75-15.16,5.41-22.69,8.31-3.72,1.43-5.54,4.56-5.96,8.44-.75,6.94-1.29,13.91-2.15,20.84-.28,2.27-1.27,4.45-1.93,6.67h-1.01c-.71-1.14-1.57-2.19-2.09-3.39-2.35-5.36-4.57-10.79-6.91-16.16-1.5-3.45-1.55-3.39-4.97-1.95-1.43,.6-2.9,1.13-4.39,1.52-3.96,1.04-7.26,3.11-10.05,6.07-.47,.5-.95,1-1.44,1.49-4.49,4.42-7.35,4.08-10.07-1.55-1.49-3.08-2.66-6.38-3.44-9.71-.46-1.99-.29-4.36,.32-6.33,1.77-5.77,4.91-10.82,9.2-15.09,2.33-2.32,3.73-2.46,6.35-.48,2.04,1.55,3.83,3.45,5.9,5.36,1.93-1.22,4.06-2.36,5.91-3.85,.68-.55,.99-1.89,1.02-2.88,.35-15.27,.55-30.55,.93-45.82,.85-34.43,1.78-68.85,2.67-103.28,.05-1.78,0-3.55,0-5.33l-.72-.22c-.77,1.35-1.75,2.63-2.28,4.07-2.65,7.18-5.2,14.4-7.75,21.62-1.8,5.12-3.41,10.31-5.37,15.36-.95,2.45-2.5,4.67-3.84,7.1-5.76-4.17-8.76-9.53-9.99-16.04-.44-2.35-1.04-4.74-2.03-6.9-1.43-3.12-1.64-6.2-.35-9.27,2.86-6.83,5.72-13.67,8.86-20.37,8.71-18.57,17.56-37.07,26.35-55.6,.66-1.4,1.36-2.81,1.76-4.3,.24-.9-.07-1.95-.13-2.93-.96,.17-2.05,.09-2.84,.55-1.17,.68-2.15,1.71-3.17,2.64-1.66,1.51-3.19,3.17-4.93,4.57-3.55,2.84-6.78,2.39-9.06-1.58-1.39-2.42-2.32-5.2-2.93-7.94-1.37-6.14-2.48-12.34-3.55-18.54-.2-1.16-.08-2.97,.63-3.51,.7-.53,2.45-.11,3.54,.36,2.76,1.2,5.38,2.72,8.1,4.01,3.52,1.68,6.92,1.34,9.94-1.13,2.53-2.07,4.96-4.29,7.34-6.54,.48-.45,.77-1.35,.75-2.03-.29-7.32-.65-14.65-1.04-21.97-.05-.94-.29-1.88-.57-2.78-2.19-7.18,4.58-17,12.11-17.52,3.46-.24,6.5,1.8,7.53,5.05,.15,.48,.27,1.3,.54,1.37,3.89,.94,4.87,5.28,8.12,6.89,2.36,1.17,5,1.87,7.21,3.26,2.49,1.57,4.65,3.66,6.92,5.56,2.25,1.89,2.23,3.81,.72,6.42-5.52,9.52-13.37,16.62-22.53,22.39-4.86,3.06-8.15,11.02-6.52,16.57,.72,2.45,2.37,3.03,4.47,1.48,1.11-.82,2.2-1.69,3.14-2.69,11.42-12,22.85-24,34.19-36.07,4.72-5.03,8.18-10.86,10.39-17.42,.49-1.46,1.1-2.91,1.87-4.25,1.55-2.73,3.25-3.01,5.66-1.02,3.02,2.5,4.9,5.75,6.08,9.44,2.29,7.11,2.56,14.42,1.91,21.76-.39,4.45-3.02,7.68-6.29,10.63-3.3,2.98-6.21,6.38-9.28,9.62-2.13,2.25-4.21,4.53-6.43,6.92,1.38,1.7,2.82,3.5,4.48,5.55,.76-.69,1.42-1.31,2.09-1.91,4.22-3.82,8.39-7.7,12.68-11.44,2.56-2.24,5.34-2.37,8.33-.55,5.98,3.65,9.69,8.67,10.19,15.83,.25,3.63-.96,6.78-2.98,9.69-2.51,3.61-5.09,7.18-7.56,10.82-1.26,1.85-2.39,3.79-3.47,5.75-1.56,2.84-1.36,5.55,.62,8.22,3.18,4.29,4.02,9.28,3.85,14.47-.11,3.42-1.43,4.71-4.82,5.33-1.01,.18-2.09,.31-2.98,.78-8.2,4.38-16.43,8.71-24.51,13.3-3.37,1.92-3.16,3.84,.17,5.86,.59,.36,1.22,.64,1.84,.94,4.97,2.39,5.96,6.1,2.73,10.67-1.22,1.73-2.67,3.29-4.13,5.07,4.83,.57,7.93-1.99,8.19-6.41,.08-1.29,.06-2.62,.38-3.86,.43-1.67,1.57-1.95,2.93-.9,2.59,1.98,5.16,3.99,7.74,5.99,.61,.48,1.25,.92,1.86,1.41,5.56,4.51,6.13,8.67,1.93,14.53-1.05,1.47-2.26,2.83-3.41,4.23-1.59,1.93-3.66,2.74-6.14,2.79-2.5,.05-5,.16-7.48,.39-2.88,.28-5.07,1.82-6.34,4.37-3.64,7.33-5.66,15.14-6.4,23.29-.04,.4,.13,.81,.31,1.79,2.21-1.9,4.42-3.31,5.99-5.24,5.47-6.71,12.11-7.9,19.89-4.82,2.64,1.04,5.46,1.72,7.92,3.06,5.02,2.75,6.57,7.4,4.67,12.79-.11,.33-.18,.69-.37,.96-4.59,6.46-3.81,13.51-2.85,20.83,.8,6.13,.5,12.4,.68,18.61,.03,1.01,0,2.02,0,3.14,5.31-1.14,10.26-2.26,15.23-3.26,5.74-1.16,10.11,.99,13.37,5.71,2.94,4.25,4.98,8.87,5.52,14.05,.14,1.33,.19,2.97-.46,4.02-4.53,7.31-9.79,14.09-18.93,15.55-4.71,.75-9.61,.32-14.43,.25-.89-.01-1.77-.82-2.66-1.25,.51-.83,.83-1.93,1.56-2.45,5.22-3.67,7.45-9.32,10.41-15.13-3.36,.71-6.32,1.19-9.21,1.98-6.89,1.89-13.75,3.92-20.62,5.9-.5,.14-1.04,.25-1.45,.53-.87,.6-1.68,1.3-2.51,1.96,.91,.69,1.72,1.59,2.74,2.01,2.46,1.03,5.06,1.71,7.51,2.75,4.01,1.7,4.38,2.56,4.39,6.88,.01,6.29-2.8,10.69-8.47,13.31-2.09,.97-4.19,1.94-6.26,3.4,2.7,.26,5.39,.53,8.09,.79,5.92,.59,11.86,1.07,17.76,1.8,9.25,1.15,17.07,5.73,24.75,10.6,4.15,2.63,8.23,5.37,12.45,7.89,6.24,3.73,9.22,9.64,8.04,16.81-.19,1.13-1.47,2.04-1.93,3.17-1.93,4.81-5.62,7.01-10.48,8.37-4.61,1.29-9.03,3.4-13.39,5.45-4.06,1.9-8.02,2.37-12.24,.71-1.58-.62-3.27-.99-4.86-1.46Zm-55.1-171.69c-2.75,.86-5.11,1.55-7.43,2.35-1.93,.67-3.57,.37-4.89-1.22-1.98-2.38-4.08-4.69-5.87-7.21-2.07-2.93-1.91-3.74,.73-6.16,3.15-2.88,5.25-6.31,6.34-10.45,1.41-5.34,4.01-10.06,7.68-14.2,3.14-3.55,5.19-7.71,6.36-12.28,.26-1.04,.23-2.15,.42-4.03-2.15,1.19-3.72,1.98-5.21,2.89-6,3.64-10.3,2.56-13.14-3.9-1.46-3.33-2.38-7.03-2.8-10.65-.6-5.06,2.45-8.13,7.53-8.39,3.44-.18,6.9-.23,10.33-.55,3.23-.3,5.99-1.69,7.76-4.54,2.64-4.26,3.43-8.99,3.02-13.9-.07-.81-1.09-2.23-1.57-2.19-1.11,.1-2.49,.66-3.15,1.51-.67,.85-.73,2.26-.83,3.45-.24,2.75-.25,5.52-.52,8.26-.33,3.24-1.92,5.3-4.7,5.22-3.56-.1-7.16-.67-10.65-1.45-2.43-.54-3.82-2.45-4.25-5.02-.37-2.21-.96-4.38-1.4-6.57-.64-3.2-.71-6.38,1.03-9.3,3.08-5.18,6.1-10.42,9.41-15.46,2.85-4.33,6.41-4.14,9.31,.26,.93,1.41,1.68,2.94,2.53,4.44,.91-.34,1.64-.6,2.36-.89,3.37-1.39,3.84-1.91,3.13-5.41-.54-2.67-1.07-5.63-2.61-7.74-3.64-5.01-1.95-9.45,.59-13.93,1.24-2.19,3.2-3.62,5.87-3.68,2.41-.05,4.06-1.26,5.15-3.32,.89-1.67,1.82-3.33,2.53-5.08,.4-1.01,.38-2.18,.55-3.28l-.95-.64c-1.86,1.54-4,2.85-5.52,4.67-7.81,9.31-15.7,18.57-23.11,28.2-6.63,8.61-12.5,17.77-16.37,28.05-3.84,10.18-4.38,20.91-4.83,31.57-1.69,39.76-2.45,79.52,.94,119.24,.56,6.6,1.63,13.17,2.64,19.73,.5,3.25,1.77,3.96,4.89,3.01,2.3-.7,4.55-1.6,6.8-2.46,2.45-.93,4.87-1.93,7.29-2.89-.28-.73-.34-1.1-.53-1.37-5.13-7.05-4.39-14.23-.91-21.74,1.38-2.98,2.17-6.4,2.49-9.7,1.21-12.36,2.13-24.75,3.15-37.12,.15-1.87,.26-3.74,.42-6.14Zm4.6,145.69c.64,1.56,.87,3.57,1.78,3.94,.95,.39,2.56-.76,3.83-1.34,.53-.24,.95-.74,1.37-1.17,2.72-2.77,5.38-5.59,8.16-8.29,.65-.63,1.76-1.27,2.58-1.19,4.62,.48,9.26,1,13.82,1.86,3.74,.71,6.33,3.37,7.59,6.77,1.1,2.96-1.77,4.56-3.49,6.34-2.03,2.1-4.45,3.85-6.38,6.03-2.74,3.1-2.07,4.76,1.92,5.52,.84,.16,1.71,.21,2.56,.33,4.83,.71,9.77,.85,14.23,3.36,.71,.4,2.6-.2,3.23-.94,3.05-3.62,5.97-7.36,8.72-11.21,2.17-3.04,1.88-4.53-1.26-6.66-3.49-2.37-7.15-4.48-10.76-6.66-10.93-6.6-22.75-10.62-35.46-11.89-.88-.09-2.14,.2-2.7,.8-2.39,2.6-4.75,5.26-6.78,8.14-1.29,1.84-1.97,4.1-2.97,6.27Zm5.43,83.47l-1.09-.51c-5.08,6.2-9.33,12.94-12.38,20.39-.26,.65-.12,2.04,.3,2.29,2.91,1.74,5.92,3.33,8.98,4.81,.52,.25,1.58-.1,2.14-.51,3.46-2.58,5.8-6.07,7.86-9.81-.7,.08-1.23,.33-1.75,.58-4.84,2.35-9.41-.52-9.4-5.9,0-3.14,1.71-5.49,3.52-7.84,.79-1.02,1.23-2.32,1.82-3.49Zm22.06-210.23c-5.05,2.64-8.51,6.29-11.99,10.9,1.18,.07,1.6,.19,1.97,.1,3.54-.84,6.08,.74,7.98,3.47,1.56,2.26,2.83,4.72,4.25,7.08,.52,.86,1.09,1.7,1.64,2.55l.68-.33c-1.48-7.75-2.95-15.51-4.53-23.77Zm6.68-139.7c-5.35,2.66-13,15.45-12.62,21.14,.08,1.15,.74,2.27,1.18,3.52,4.45-2.9,12.78-21.15,11.45-24.66Zm-24.52,184.99c5.22-4.23,5.41-11.98,.87-16.1-1.54-1.39-2.45-.52-2.75,.98-1,5.12-.08,10.02,1.88,15.12Zm15.73,152.41l-1.01,.1c-1.49,5.11-2.99,10.21-4.48,15.32,2.77-1.7,5.03-3.68,7.18-5.77,.5-.48,1.03-1.45,.87-2-.73-2.59-1.69-5.11-2.56-7.65Zm6.88-167.42l-.49-.04c-1.55,4.36-3.16,8.71-4.58,13.11-.24,.75,.04,2.28,.55,2.54,2.23,1.15,4.43-.19,4.49-2.71,.11-4.3,.03-8.6,.03-12.9Zm-44.36-227.83c-3.33-1.66-6.3-1.48-7.71,.01-1.66,1.75-2.46,6.11-1.18,8.61,2.95-2.86,5.76-5.59,8.88-8.62Zm32.61,354.26l.72,.49c1.12-.5,2.46-.76,3.31-1.55,.82-.76,1.77-2.23,1.54-3.09-.33-1.23-1.63-2.23-2.65-3.19-.14-.13-1.37,.39-1.47,.78-.59,2.16-.99,4.37-1.45,6.57Zm-20.49-208.62c-1.64,2.75-4.24,4.43-3.66,7.8,3.02-1.47,4.19-3.88,3.66-7.8Z"/></g></g><g id="h"/><g id="i"/><g id="j"/><g id="k"/><g id="l"/><g id="m"/></svg>