<?xml version="1.0" encoding="UTF-8"?><svg xmlns="http://www.w3.org/2000/svg" viewBox="0 0 2091 500"><defs><style>.n,.o{fill:#fff;}.p{fill:#abaf9c;}.q,.r{fill:#e30016;}.o{font-family:Coves-Bold, Coves;font-size:95.23px;letter-spacing:-.03em;}.r{fill-rule:evenodd;}</style></defs><g id="a"/><g id="b"/><g id="c"/><g id="d"/><g id="e"/><g id="f"/><g id="g"/><g id="h"/><g id="i"/><g id="j"/><g id="k"/><g id="l"><g><rect class="p" width="2091" height="500"/><path class="r" d="M418.1,171.2c43.89,0,79.5,35.61,79.5,79.5s-35.61,79.47-79.5,79.47m205.57-24.29c-22.99,85.75-98.2,150.15-189.44,157.01,22.99-85.75,98.2-150.18,189.44-157.01ZM434.23,38.5c91.24,6.84,166.44,71.26,189.44,157.01-91.24-6.84-166.44-71.26-189.44-157.01Z"/><text class="o" transform="translate(689.45 291)"><tspan x="0" y="0">Kyokushin Karaté club Goderville</tspan></text><path class="q" d="M419.84,462.89c-117.19,0-212.19-95-212.19-212.19S302.66,38.52,419.84,38.52"/><path class="n" d="M293.83,380.49c-.23,.26-.42,.37-.44,.51-1.32,7.14-6.5,10.95-12.27,14.27-5.27,3.03-10.5,6.11-15.73,9.2-.78,.46-1.47,1.05-2.83,2.02,3.09,1.05,5.53,1.91,8,2.71,3.66,1.18,7.32,2.35,11,3.47,8.06,2.46,11.92,7.86,12.22,16.31,.13,3.79-.71,6.31-4.21,8.07-5.3,2.66-9.6,6.71-13.05,11.41-5.16,7.01-10.11,14.21-14.63,21.64-2.13,3.5-3.25,7.69-4.47,11.67-1.52,4.96-5.5,7.56-10.4,6.06-4.62-1.41-7.63-4.75-8.59-9.38-.57-2.76-1.85-4.54-4.12-5.77-1.87-1.02-3.86-1.82-5.82-2.68-2.27-.99-4.62-1.83-6.84-2.92-5.04-2.48-6.65-5.1-5.87-10.67,.42-2.98,1.59-5.91,2.77-8.71,.52-1.24,1.73-2.57,2.95-3.06,3.35-1.35,5.25-4,7.05-6.83,2.2-3.47,4.31-7,6.59-10.41,2.4-3.59,5.1-6.89,9.53-8.19,.71-.21,1.28-.95,1.91-1.44l-.22-.88c-1.12,.07-2.36-.14-3.33,.27-4.33,1.82-8.58,3.84-12.87,5.76-1.64,.73-3.33,1.35-4.97,2.06-3.52,1.53-6.31,.49-8.62-2.36-.54-.66-1.08-1.33-1.56-2.03-3.3-4.83-3.5-6.58,.49-10.84,6.36-6.8,13.04-13.32,19.75-19.79,1.58-1.52,3.83-2.34,5.77-3.48l.63,.61c-.36,.88-.66,1.79-1.11,2.62-.89,1.65-1.99,3.2-2.77,4.91-.98,2.16-.15,3.3,2.22,3.22,2.49-.08,4.05-1.61,5.23-3.64,1.57-2.69,2.12-6.3,1.62-10.99-2.07,.12-4.17,.28-6.27,.34-1.8,.06-3.6,.1-5.39-.02-4.97-.35-6.2-1.57-7.86-7.82-1.05,.89-2.1,1.55-2.86,2.46-6.77,8.17-13.68,16.24-20.19,24.62-7.93,10.21-15.33,20.82-23.33,30.96-2.46,3.12-5.99,5.5-9.3,7.83-2.28,1.6-4.84,.94-6.75-1.09-4.29-4.57-6.58-9.83-4.74-16.16,2.02-6.92,4.64-13.55,8.96-19.47,2.41-3.3,4.17-7.07,6.35-10.55,4.94-7.9,9.95-15.77,14.96-23.62,.48-.76,1.2-1.36,2.29-2.56,1.85,6.6,.11,12.78,1.14,19.23,1.18-.67,2.4-1.08,3.25-1.89,4.78-4.52,9.92-8.76,14.09-13.8,8.29-10.02,16.1-20.44,23.94-30.82,3.2-4.24,2.47-5.55-2.83-6.11-2.57-.27-5.14-.51-7.72-.77l-.21-.94c.85-.55,1.64-1.33,2.58-1.62,2.28-.71,4.6-1.39,6.96-1.71,2.99-.41,5.31-1.73,7.15-4.05,7.41-9.4,6.86-8.97,1.51-20.15-7.48,2.72-15.05,5.37-22.52,8.24-3.69,1.42-5.5,4.53-5.91,8.37-.74,6.89-1.28,13.8-2.13,20.68-.28,2.25-1.26,4.42-1.91,6.62h-1c-.7-1.13-1.55-2.17-2.08-3.37-2.33-5.32-4.54-10.7-6.86-16.03-1.49-3.42-1.54-3.36-4.93-1.94-1.41,.6-2.87,1.12-4.36,1.51-3.93,1.03-7.21,3.08-9.97,6.02-.47,.5-.94,.99-1.43,1.47-4.45,4.39-7.29,4.05-9.99-1.54-1.48-3.06-2.64-6.33-3.41-9.63-.46-1.98-.29-4.32,.31-6.29,1.76-5.72,4.87-10.74,9.13-14.98,2.31-2.3,3.7-2.44,6.3-.47,2.03,1.54,3.8,3.42,5.86,5.32,1.92-1.21,4.03-2.35,5.86-3.82,.68-.54,.99-1.87,1.01-2.86,.35-15.15,.55-30.31,.92-45.46,.85-34.16,1.77-68.32,2.65-102.48,.05-1.76,0-3.53,0-5.29l-.71-.21c-.77,1.34-1.73,2.61-2.26,4.04-2.63,7.13-5.16,14.29-7.69,21.46-1.79,5.08-3.38,10.23-5.33,15.25-.94,2.43-2.48,4.63-3.81,7.05-5.72-4.14-8.69-9.45-9.91-15.92-.44-2.33-1.03-4.71-2.01-6.85-1.42-3.1-1.63-6.15-.35-9.2,2.84-6.78,5.68-13.57,8.79-20.22,8.64-18.43,17.43-36.78,26.14-55.17,.66-1.39,1.35-2.79,1.75-4.26,.24-.89-.07-1.93-.13-2.91-.95,.16-2.04,.09-2.82,.55-1.16,.68-2.14,1.69-3.15,2.62-1.64,1.5-3.16,3.15-4.89,4.53-3.52,2.82-6.73,2.38-8.99-1.57-1.38-2.4-2.3-5.16-2.91-7.88-1.36-6.09-2.46-12.24-3.52-18.39-.2-1.15-.08-2.94,.63-3.48,.69-.53,2.43-.11,3.51,.36,2.74,1.19,5.34,2.69,8.04,3.98,3.49,1.66,6.86,1.33,9.86-1.12,2.51-2.06,4.92-4.26,7.28-6.49,.47-.45,.77-1.34,.74-2.02-.29-7.27-.65-14.53-1.03-21.8-.05-.93-.29-1.86-.56-2.76-2.18-7.13,4.54-16.87,12.01-17.38,3.44-.24,6.45,1.79,7.47,5.01,.15,.48,.27,1.29,.54,1.36,3.86,.93,4.84,5.24,8.06,6.84,2.34,1.16,4.96,1.85,7.15,3.23,2.47,1.56,4.61,3.63,6.86,5.52,2.24,1.88,2.22,3.78,.71,6.37-5.47,9.45-13.27,16.49-22.35,22.21-4.82,3.04-8.09,10.93-6.47,16.44,.71,2.43,2.35,3.01,4.43,1.47,1.1-.81,2.18-1.68,3.12-2.67,11.33-11.91,22.67-23.81,33.93-35.79,4.69-4.99,8.11-10.78,10.31-17.29,.49-1.45,1.1-2.89,1.85-4.22,1.54-2.71,3.23-2.99,5.61-1.02,2.99,2.48,4.86,5.71,6.03,9.36,2.27,7.05,2.54,14.31,1.9,21.6-.39,4.42-3,7.62-6.24,10.54-3.27,2.95-6.17,6.33-9.2,9.54-2.11,2.23-4.18,4.5-6.38,6.87,1.37,1.69,2.8,3.47,4.44,5.5,.75-.69,1.41-1.3,2.08-1.9,4.19-3.79,8.33-7.64,12.58-11.35,2.54-2.22,5.3-2.35,8.27-.54,5.94,3.62,9.62,8.6,10.11,15.71,.25,3.6-.96,6.73-2.96,9.62-2.49,3.59-5.05,7.12-7.5,10.73-1.25,1.84-2.37,3.76-3.44,5.71-1.55,2.82-1.35,5.51,.61,8.16,3.15,4.26,3.99,9.21,3.82,14.36-.11,3.4-1.42,4.68-4.78,5.29-1,.18-2.08,.31-2.95,.78-8.14,4.34-16.31,8.64-24.32,13.2-3.34,1.9-3.14,3.81,.17,5.82,.58,.35,1.21,.64,1.83,.93,4.93,2.37,5.91,6.05,2.71,10.58-1.21,1.71-2.65,3.27-4.1,5.03,4.8,.56,7.87-1.97,8.13-6.36,.08-1.28,.06-2.6,.38-3.83,.43-1.66,1.55-1.93,2.91-.9,2.57,1.96,5.12,3.96,7.68,5.94,.61,.47,1.24,.91,1.84,1.39,5.52,4.48,6.09,8.6,1.92,14.42-1.05,1.46-2.24,2.81-3.38,4.2-1.58,1.91-3.63,2.72-6.09,2.77-2.48,.05-4.96,.15-7.42,.39-2.85,.27-5.03,1.81-6.29,4.33-3.62,7.28-5.62,15.03-6.35,23.11-.04,.39,.13,.8,.31,1.78,2.19-1.88,4.38-3.28,5.94-5.2,5.43-6.66,12.02-7.84,19.73-4.79,2.61,1.04,5.42,1.7,7.86,3.04,4.98,2.73,6.52,7.34,4.64,12.69-.11,.32-.17,.69-.37,.96-4.55,6.41-3.78,13.41-2.83,20.67,.8,6.08,.5,12.3,.68,18.47,.03,1,0,2,0,3.11,5.27-1.13,10.18-2.24,15.11-3.24,5.69-1.15,10.03,.98,13.27,5.67,2.92,4.22,4.94,8.81,5.47,13.94,.14,1.32,.18,2.95-.46,3.99-4.5,7.25-9.72,13.98-18.78,15.43-4.67,.75-9.54,.31-14.32,.25-.88-.01-1.76-.81-2.64-1.24,.51-.82,.82-1.92,1.55-2.43,5.18-3.64,7.4-9.25,10.33-15.01-3.33,.71-6.28,1.18-9.14,1.97-6.84,1.87-13.64,3.89-20.46,5.86-.49,.14-1.03,.25-1.44,.53-.87,.59-1.67,1.29-2.49,1.95,.9,.68,1.71,1.58,2.72,2,2.44,1.02,5.02,1.7,7.45,2.73,3.98,1.68,4.35,2.54,4.36,6.83,.01,6.24-2.78,10.6-8.41,13.21-2.08,.96-4.16,1.93-6.21,3.38,2.67,.26,5.35,.52,8.02,.79,5.88,.59,11.77,1.06,17.63,1.79,9.17,1.14,16.94,5.68,24.55,10.51,4.12,2.61,8.17,5.33,12.35,7.83,6.19,3.7,9.15,9.56,7.97,16.68-.19,1.12-1.46,2.02-1.91,3.15-1.91,4.77-5.58,6.95-10.4,8.3-4.58,1.28-8.96,3.38-13.29,5.41-4.03,1.88-7.96,2.35-12.14,.71-1.57-.62-3.24-.98-4.82-1.45Zm-54.68-170.36c-2.73,.86-5.07,1.54-7.37,2.33-1.92,.66-3.54,.37-4.85-1.21-1.97-2.36-4.05-4.65-5.82-7.16-2.05-2.9-1.89-3.71,.73-6.11,3.12-2.86,5.21-6.26,6.29-10.37,1.4-5.29,3.98-9.98,7.62-14.09,3.12-3.52,5.15-7.65,6.31-12.19,.26-1.03,.23-2.13,.41-4-2.14,1.18-3.69,1.97-5.17,2.87-5.96,3.61-10.22,2.54-13.03-3.87-1.45-3.3-2.36-6.98-2.78-10.57-.6-5.02,2.43-8.07,7.48-8.33,3.42-.17,6.85-.23,10.25-.55,3.2-.3,5.95-1.68,7.7-4.5,2.62-4.23,3.41-8.92,3-13.79-.07-.81-1.09-2.21-1.56-2.17-1.11,.1-2.47,.66-3.13,1.5-.66,.84-.72,2.24-.82,3.42-.24,2.73-.24,5.48-.52,8.2-.32,3.22-1.9,5.26-4.66,5.18-3.54-.1-7.1-.67-10.57-1.44-2.41-.54-3.79-2.43-4.22-4.98-.37-2.19-.95-4.34-1.39-6.52-.63-3.18-.7-6.33,1.02-9.22,3.06-5.14,6.05-10.34,9.34-15.34,2.83-4.3,6.36-4.11,9.24,.26,.92,1.4,1.67,2.92,2.51,4.41,.91-.34,1.63-.59,2.34-.89,3.34-1.38,3.81-1.9,3.11-5.37-.54-2.65-1.06-5.59-2.59-7.68-3.62-4.97-1.94-9.37,.58-13.83,1.23-2.18,3.18-3.59,5.83-3.65,2.4-.05,4.03-1.25,5.11-3.29,.88-1.66,1.81-3.31,2.51-5.04,.4-1,.38-2.17,.55-3.26l-.95-.63c-1.84,1.53-3.96,2.83-5.48,4.63-7.75,9.24-15.58,18.43-22.93,27.98-6.58,8.55-12.4,17.64-16.25,27.83-3.81,10.1-4.34,20.74-4.79,31.33-1.68,39.45-2.43,78.91,.93,118.32,.56,6.55,1.62,13.07,2.62,19.58,.5,3.23,1.76,3.92,4.85,2.98,2.29-.69,4.52-1.58,6.75-2.44,2.43-.93,4.83-1.91,7.23-2.87-.28-.73-.34-1.09-.53-1.36-5.09-7-4.36-14.12-.9-21.57,1.37-2.96,2.15-6.35,2.47-9.62,1.2-12.26,2.11-24.55,3.12-36.84,.15-1.85,.25-3.71,.41-6.1Zm4.56,144.56c.63,1.55,.87,3.55,1.76,3.91,.94,.38,2.54-.75,3.8-1.33,.52-.24,.94-.74,1.36-1.16,2.7-2.75,5.34-5.55,8.1-8.23,.65-.63,1.74-1.26,2.56-1.18,4.59,.48,9.19,.99,13.72,1.85,3.71,.7,6.28,3.34,7.53,6.72,1.09,2.94-1.76,4.52-3.47,6.29-2.01,2.09-4.41,3.82-6.33,5.99-2.72,3.08-2.06,4.72,1.91,5.48,.84,.16,1.7,.2,2.54,.33,4.8,.7,9.7,.84,14.12,3.33,.71,.4,2.58-.2,3.21-.94,3.03-3.59,5.93-7.3,8.65-11.13,2.15-3.02,1.87-4.49-1.25-6.61-3.46-2.35-7.1-4.44-10.68-6.61-10.85-6.55-22.57-10.54-35.18-11.8-.88-.09-2.13,.2-2.68,.79-2.37,2.58-4.72,5.22-6.73,8.07-1.28,1.82-1.96,4.07-2.95,6.22Zm5.39,82.83l-1.08-.51c-5.04,6.15-9.26,12.84-12.28,20.24-.26,.64-.12,2.02,.3,2.27,2.89,1.73,5.87,3.31,8.91,4.77,.52,.25,1.57-.1,2.12-.51,3.43-2.56,5.76-6.02,7.8-9.73-.69,.08-1.22,.32-1.74,.58-4.81,2.33-9.34-.52-9.33-5.86,0-3.12,1.7-5.44,3.49-7.78,.78-1.02,1.22-2.3,1.81-3.47Zm21.89-208.61c-5.01,2.62-8.45,6.24-11.9,10.82,1.17,.07,1.59,.19,1.96,.1,3.51-.83,6.04,.74,7.91,3.45,1.55,2.24,2.81,4.68,4.22,7.02,.52,.86,1.08,1.69,1.62,2.53l.67-.33c-1.47-7.69-2.93-15.39-4.49-23.59Zm6.63-138.62c-5.31,2.64-12.9,15.33-12.53,20.98,.07,1.15,.74,2.25,1.17,3.49,4.41-2.88,12.68-20.98,11.36-24.47Zm-24.33,183.56c5.17-4.2,5.37-11.89,.86-15.98-1.52-1.38-2.43-.52-2.72,.97-.99,5.08-.08,9.95,1.87,15Zm15.61,151.24l-1,.1c-1.48,5.07-2.96,10.13-4.45,15.2,2.75-1.68,4.99-3.65,7.13-5.72,.49-.48,1.02-1.44,.87-1.99-.72-2.57-1.67-5.07-2.54-7.59Zm6.83-166.12l-.49-.04c-1.54,4.33-3.13,8.64-4.55,13.01-.24,.74,.04,2.26,.55,2.52,2.21,1.15,4.4-.19,4.46-2.69,.1-4.26,.03-8.53,.03-12.8ZM231.72,32.89c-3.3-1.65-6.25-1.47-7.65,.01-1.65,1.74-2.44,6.06-1.17,8.54,2.93-2.84,5.72-5.55,8.81-8.55Zm32.36,351.52l.72,.48c1.11-.49,2.44-.76,3.28-1.54,.82-.76,1.76-2.22,1.53-3.07-.33-1.22-1.62-2.21-2.63-3.17-.14-.13-1.36,.39-1.46,.78-.59,2.14-.98,4.34-1.44,6.52Zm-20.33-207.01c-1.63,2.73-4.2,4.39-3.63,7.74,3-1.46,4.16-3.85,3.63-7.74Z"/></g></g><g id="m"/></svg>