<?xml version="1.0" encoding="UTF-8"?><svg xmlns="http://www.w3.org/2000/svg" viewBox="0 0 800 500"><defs><style>.k,.l{fill:#fff;}.m{fill:#e30016;}.l{font-family:Coves-Bold, Coves;font-size:60px;letter-spacing:-.03em;}</style></defs><g id="a"/><g id="b"/><g id="c"/><g id="d"/><g id="e"/><g id="f"/><g id="g"/><g id="h"/><g id="i"><g><g><g><circle class="m" cx="214.46" cy="259.99" r="153.57"/><path class="k" d="M177.68,171.54c0-4.73,9.73-6.39,13.07-6.39s5.94,.77,8.18,2.31c2.24,1.54,4.01,3.6,5.3,6.16,.38,.77,.7,1.44,.96,2.02,.26,.58,.42,1.25,.48,2.02,.06,.77,.1,1.77,.1,2.99s-.07,2.86-.19,4.91c-.13,3.47-.45,6.93-.96,10.4-.51,3.47-1.41,7.48-2.7,12.04-1.28,4.56-2.95,9.95-5.01,16.18-2.06,6.23-4.69,13.77-7.9,22.63-2.31,6.29-4.27,11.72-5.87,16.27-1.61,4.56-2.41,6.9-2.41,7.03s.61-.1,1.83-.67c1.22-.58,2.73-1.35,4.53-2.31,1.8-.96,3.66-1.99,5.59-3.08,1.93-1.09,3.59-2.09,5.01-2.98,1.28-.77,3.11-2.05,5.49-3.85,2.37-1.8,5.07-3.92,8.09-6.36,3.02-2.44,6.19-5.04,9.53-7.8,3.34-2.76,6.67-5.55,10.01-8.38,4.36-3.72,8.96-7.9,13.77-12.52,4.81-4.62,9.4-9.24,13.77-13.87,4.36-4.62,8.28-8.96,11.75-13s6.03-7.35,7.7-9.92c2.18-3.34,3.95-6.55,5.3-9.63,1.35-3.08,2.02-5.33,2.02-6.74,0-1.93,.32-3.27,.96-4.04,.64-.77,1.44-.99,2.41-.67,.96,.32,1.96,1.13,2.98,2.41,1.03,1.28,1.86,3.02,2.5,5.2,1.41,4.11,1.99,7.54,1.73,10.3-.26,2.76-1.29,6.07-3.08,9.92-1.41,2.96-3.79,6.52-7.13,10.69-3.34,4.17-7.26,8.64-11.75,13.38-4.5,4.75-9.34,9.5-14.54,14.25-5.2,4.75-10.37,9.18-15.5,13.29-3.34,2.57-6.36,4.78-9.05,6.64-2.7,1.86-5.59,3.66-8.67,5.39-3.08,1.73-6.58,3.56-10.5,5.49-3.92,1.93-8.76,4.17-14.54,6.74l-7.51,3.47,5.39,1.16c3.47,.64,6.42,1.44,8.86,2.41,2.44,.96,5.13,2.41,8.09,4.33,5.9,3.73,10.85,8.35,14.83,13.87,1.03,1.54,1.96,2.89,2.79,4.04,.83,1.16,1.6,2.41,2.31,3.76,.7,1.35,1.47,2.86,2.31,4.53,.83,1.67,1.76,3.73,2.79,6.16,3.21,6.81,6.19,12.3,8.95,16.47,2.76,4.17,5.1,6.77,7.03,7.8,.77,.38,1.54,.64,2.31,.77,.77,.13,1.86,.06,3.27-.19,4.11-.64,4.75,.26,1.93,2.7-4.24,3.98-9.76,5.2-16.56,3.66-1.03-.26-2.41-.67-4.14-1.25-1.73-.58-3.24-1.19-4.53-1.83-2.7-1.29-5.14-2.76-7.32-4.43-2.18-1.67-4.33-3.79-6.45-6.36-2.12-2.57-4.27-5.61-6.45-9.15-2.18-3.53-4.5-7.8-6.93-12.81-2.06-3.98-3.79-7.29-5.2-9.92-1.41-2.63-2.63-4.81-3.66-6.55-1.03-1.73-1.99-3.14-2.89-4.24-.9-1.09-1.8-2.15-2.7-3.18-5.65-5.9-11.24-7.83-16.76-5.78-.9,.26-1.7,.61-2.41,1.06-.71,.45-1.13,.8-1.25,1.06-.13,.26-.84,2.15-2.12,5.68-1.28,3.53-2.83,7.61-4.62,12.23-3.47,9.24-6.29,16.63-8.47,22.15-2.18,5.52-4.04,9.79-5.59,12.81-1.54,3.02-2.92,5.07-4.14,6.16-1.22,1.09-2.6,1.83-4.14,2.21-1.93,.51-4.24,.45-6.93-.19-2.7-.64-4.69-1.54-5.97-2.7-.77-.77-1.32-1.67-1.64-2.7-.32-1.03-.39-2.44-.19-4.24,.19-1.8,.67-4.07,1.44-6.84,.77-2.76,1.8-6.26,3.08-10.5,4.49-13.99,10.11-29.3,16.85-45.93,6.74-16.63,14.73-35.15,23.98-55.56,5.13-11.17,8.79-19.64,10.98-25.42,2.18-5.78,3.34-10.01,3.47-12.71,0-2.05-.9-3.08-2.7-3.08-1.67,.13-3.17,.8-5.25,1.85,0,0-7.43,2.48-7.43-1.24Z"/></g><path class="k" d="M123.27,354.44c-.17,.19-.3,.27-.32,.37-.96,5.17-4.7,7.92-8.88,10.32-3.81,2.19-7.6,4.42-11.38,6.66-.56,.33-1.07,.76-2.05,1.46,2.23,.76,4.01,1.38,5.79,1.96,2.65,.86,5.3,1.7,7.96,2.51,5.84,1.78,8.63,5.69,8.84,11.81,.09,2.74-.51,4.57-3.05,5.84-3.83,1.92-6.95,4.86-9.45,8.26-3.73,5.08-7.32,10.28-10.59,15.66-1.54,2.54-2.35,5.56-3.23,8.45-1.1,3.59-3.98,5.47-7.52,4.38-3.34-1.02-5.52-3.44-6.22-6.79-.41-2-1.34-3.29-2.98-4.18-1.36-.74-2.79-1.32-4.21-1.94-1.64-.72-3.34-1.32-4.95-2.11-3.64-1.79-4.81-3.69-4.25-7.72,.3-2.16,1.15-4.28,2-6.3,.38-.9,1.25-1.86,2.14-2.21,2.43-.98,3.8-2.9,5.1-4.95,1.59-2.51,3.12-5.06,4.77-7.53,1.74-2.6,3.69-4.99,6.9-5.92,.52-.15,.92-.69,1.38-1.04l-.16-.64c-.81,.05-1.71-.1-2.41,.2-3.13,1.32-6.21,2.78-9.32,4.17-1.19,.53-2.41,.97-3.6,1.49-2.55,1.11-4.57,.36-6.24-1.71-.39-.48-.78-.96-1.13-1.47-2.39-3.5-2.53-4.76,.35-7.85,4.6-4.93,9.43-9.64,14.29-14.32,1.14-1.1,2.77-1.69,4.17-2.52l.45,.44c-.26,.63-.48,1.29-.8,1.9-.64,1.2-1.44,2.32-2,3.55-.71,1.56-.11,2.39,1.61,2.33,1.8-.06,2.93-1.17,3.78-2.63,1.13-1.95,1.54-4.56,1.18-7.95-1.5,.09-3.02,.2-4.54,.25-1.3,.04-2.61,.08-3.9-.02-3.6-.26-4.49-1.13-5.69-5.66-.76,.64-1.52,1.12-2.07,1.78-4.9,5.91-9.9,11.75-14.61,17.82-5.74,7.39-11.1,15.07-16.89,22.41-1.78,2.26-4.33,3.98-6.73,5.67-1.65,1.16-3.5,.68-4.89-.79-3.1-3.31-4.76-7.11-3.43-11.7,1.46-5.01,3.36-9.81,6.48-14.09,1.74-2.39,3.02-5.11,4.59-7.63,3.58-5.72,7.2-11.41,10.83-17.1,.35-.55,.87-.98,1.66-1.85,1.34,4.78,.08,9.25,.82,13.91,.85-.48,1.74-.78,2.35-1.37,3.46-3.27,7.18-6.34,10.2-9.99,6-7.25,11.65-14.79,17.33-22.31,2.32-3.07,1.79-4.01-2.05-4.42-1.86-.2-3.72-.37-5.58-.56l-.15-.68c.62-.4,1.19-.96,1.86-1.17,1.65-.51,3.33-1,5.04-1.24,2.16-.3,3.84-1.25,5.17-2.93,5.36-6.8,4.96-6.49,1.09-14.58-5.42,1.97-10.89,3.88-16.3,5.97-2.67,1.03-3.98,3.28-4.28,6.06-.54,4.99-.93,9.99-1.54,14.97-.2,1.63-.91,3.2-1.38,4.79h-.73c-.51-.82-1.12-1.57-1.5-2.44-1.69-3.85-3.28-7.75-4.97-11.6-1.08-2.48-1.11-2.43-3.57-1.4-1.02,.43-2.08,.81-3.15,1.09-2.84,.74-5.22,2.23-7.22,4.36-.34,.36-.68,.72-1.04,1.07-3.22,3.17-5.28,2.93-7.23-1.11-1.07-2.21-1.91-4.58-2.47-6.97-.33-1.43-.21-3.13,.23-4.55,1.27-4.14,3.52-7.77,6.6-10.84,1.67-1.67,2.68-1.77,4.56-.34,1.47,1.11,2.75,2.48,4.24,3.85,1.39-.88,2.91-1.7,4.24-2.76,.49-.39,.71-1.36,.73-2.07,.25-10.97,.4-21.94,.67-32.9,.61-24.72,1.28-49.44,1.92-74.17,.03-1.27,0-2.55,0-3.83l-.52-.15c-.55,.97-1.25,1.89-1.64,2.93-1.9,5.16-3.74,10.34-5.56,15.53-1.3,3.67-2.45,7.4-3.85,11.03-.68,1.76-1.8,3.35-2.76,5.1-4.14-2.99-6.29-6.84-7.17-11.52-.32-1.69-.75-3.41-1.46-4.96-1.02-2.24-1.18-4.45-.25-6.66,2.05-4.91,4.11-9.82,6.36-14.63,6.25-13.34,12.61-26.62,18.92-39.93,.48-1.01,.98-2.02,1.27-3.09,.17-.65-.05-1.4-.09-2.1-.69,.12-1.47,.07-2.04,.4-.84,.49-1.55,1.23-2.28,1.89-1.19,1.08-2.29,2.28-3.54,3.28-2.55,2.04-4.87,1.72-6.51-1.13-1-1.74-1.67-3.74-2.11-5.7-.99-4.41-1.78-8.86-2.55-13.31-.14-.83-.06-2.13,.45-2.52,.5-.38,1.76-.08,2.54,.26,1.98,.86,3.87,1.95,5.82,2.88,2.53,1.2,4.97,.96,7.14-.81,1.82-1.49,3.56-3.08,5.27-4.7,.34-.32,.56-.97,.54-1.46-.21-5.26-.47-10.52-.75-15.77-.04-.67-.21-1.35-.41-2-1.57-5.16,3.29-12.21,8.69-12.58,2.49-.17,4.67,1.29,5.41,3.63,.11,.35,.19,.94,.39,.98,2.79,.68,3.5,3.79,5.83,4.95,1.7,.84,3.59,1.34,5.18,2.34,1.79,1.13,3.34,2.63,4.97,4,1.62,1.36,1.6,2.73,.52,4.61-3.96,6.84-9.6,11.93-16.18,16.08-3.49,2.2-5.86,7.91-4.68,11.9,.52,1.76,1.7,2.17,3.21,1.06,.8-.59,1.58-1.22,2.26-1.93,8.2-8.62,16.41-17.23,24.55-25.91,3.39-3.61,5.87-7.8,7.46-12.51,.35-1.05,.79-2.09,1.34-3.05,1.11-1.96,2.34-2.16,4.06-.73,2.17,1.79,3.52,4.13,4.37,6.78,1.64,5.1,1.84,10.35,1.37,15.63-.28,3.2-2.17,5.51-4.52,7.63-2.37,2.14-4.46,4.58-6.66,6.91-1.53,1.61-3.03,3.25-4.62,4.97l3.22,3.98c.54-.5,1.02-.94,1.5-1.37,3.03-2.74,6.03-5.53,9.11-8.22,1.84-1.61,3.84-1.7,5.98-.39,4.3,2.62,6.96,6.23,7.31,11.37,.18,2.61-.69,4.87-2.14,6.96-1.8,2.6-3.66,5.15-5.43,7.77-.9,1.33-1.72,2.72-2.49,4.13-1.12,2.04-.98,3.99,.44,5.9,2.28,3.08,2.89,6.67,2.77,10.39-.08,2.46-1.03,3.38-3.46,3.83-.72,.13-1.5,.23-2.14,.56-5.89,3.14-11.8,6.25-17.6,9.55-2.42,1.38-2.27,2.76,.12,4.21,.42,.26,.88,.46,1.32,.68,3.57,1.71,4.28,4.38,1.96,7.66-.88,1.24-1.92,2.36-2.97,3.64,3.47,.41,5.69-1.43,5.88-4.6,.05-.93,.04-1.88,.27-2.77,.31-1.2,1.13-1.4,2.1-.65,1.86,1.42,3.7,2.87,5.56,4.3,.44,.34,.9,.66,1.33,1.01,4,3.24,4.41,6.23,1.39,10.43-.76,1.05-1.62,2.03-2.45,3.04-1.14,1.39-2.63,1.97-4.41,2.01-1.79,.04-3.59,.11-5.37,.28-2.06,.2-3.64,1.31-4.55,3.14-2.62,5.27-4.07,10.88-4.6,16.72-.03,.28,.1,.58,.22,1.29,1.59-1.36,3.17-2.38,4.3-3.76,3.93-4.82,8.7-5.68,14.28-3.46,1.89,.75,3.92,1.23,5.69,2.2,3.6,1.97,4.72,5.31,3.36,9.18-.08,.23-.13,.5-.26,.69-3.3,4.64-2.73,9.7-2.05,14.96,.58,4.4,.36,8.91,.49,13.36,.02,.72,0,1.45,0,2.25,3.82-.82,7.37-1.62,10.93-2.34,4.12-.83,7.26,.71,9.6,4.1,2.11,3.06,3.58,6.37,3.96,10.09,.1,.95,.13,2.14-.33,2.89-3.25,5.25-7.03,10.12-13.59,11.17-3.38,.54-6.9,.23-10.36,.18-.64,0-1.27-.59-1.91-.9,.37-.6,.59-1.39,1.12-1.76,3.75-2.64,5.35-6.7,7.48-10.86-2.41,.51-4.54,.86-6.61,1.42-4.95,1.36-9.87,2.82-14.81,4.24-.36,.1-.74,.18-1.04,.38-.63,.43-1.21,.93-1.8,1.41,.65,.49,1.24,1.14,1.97,1.45,1.77,.74,3.63,1.23,5.39,1.97,2.88,1.22,3.15,1.84,3.15,4.94,0,4.52-2.01,7.67-6.08,9.56-1.5,.7-3.01,1.39-4.49,2.44,1.94,.19,3.87,.38,5.81,.57,4.25,.42,8.52,.77,12.76,1.29,6.64,.82,12.26,4.11,17.77,7.61,2.98,1.89,5.91,3.85,8.94,5.66,4.48,2.68,6.62,6.92,5.77,12.07-.13,.81-1.06,1.46-1.38,2.28-1.38,3.45-4.04,5.03-7.53,6.01-3.31,.93-6.48,2.44-9.62,3.91-2.91,1.36-5.76,1.7-8.79,.51-1.14-.45-2.35-.71-3.49-1.05Zm-39.57-123.3c-1.97,.62-3.67,1.11-5.34,1.69-1.39,.48-2.56,.27-3.51-.87-1.42-1.71-2.93-3.36-4.21-5.18-1.48-2.1-1.37-2.69,.53-4.42,2.26-2.07,3.77-4.53,4.56-7.5,1.01-3.83,2.88-7.22,5.51-10.2,2.26-2.55,3.73-5.53,4.57-8.82,.19-.74,.17-1.54,.3-2.89-1.55,.85-2.67,1.42-3.74,2.07-4.31,2.61-7.4,1.84-9.43-2.8-1.05-2.39-1.71-5.05-2.01-7.65-.43-3.64,1.76-5.84,5.41-6.03,2.47-.13,4.95-.16,7.42-.39,2.32-.22,4.31-1.21,5.57-3.26,1.89-3.06,2.47-6.45,2.17-9.98-.05-.58-.79-1.6-1.13-1.57-.8,.07-1.79,.48-2.26,1.09-.48,.61-.52,1.62-.6,2.47-.17,1.97-.18,3.96-.38,5.93-.24,2.33-1.38,3.81-3.37,3.75-2.56-.07-5.14-.48-7.65-1.04-1.75-.39-2.74-1.76-3.05-3.6-.27-1.58-.69-3.14-1.01-4.72-.46-2.3-.51-4.58,.74-6.68,2.22-3.72,4.38-7.48,6.76-11.1,2.05-3.11,4.6-2.98,6.69,.19,.67,1.01,1.21,2.11,1.82,3.19,.66-.25,1.18-.43,1.69-.64,2.42-1,2.76-1.37,2.25-3.89-.39-1.91-.77-4.04-1.87-5.56-2.62-3.6-1.4-6.78,.42-10.01,.89-1.58,2.3-2.6,4.22-2.64,1.73-.04,2.92-.91,3.7-2.38,.64-1.2,1.31-2.39,1.81-3.65,.29-.72,.27-1.57,.4-2.36l-.68-.46c-1.33,1.11-2.87,2.05-3.97,3.35-5.61,6.69-11.27,13.34-16.59,20.25-4.76,6.19-8.98,12.76-11.76,20.14-2.76,7.31-3.14,15.01-3.47,22.67-1.21,28.55-1.76,57.11,.67,85.63,.41,4.74,1.17,9.46,1.9,14.17,.36,2.34,1.27,2.84,3.51,2.16,1.66-.5,3.27-1.15,4.89-1.77,1.76-.67,3.5-1.39,5.23-2.08-.2-.52-.24-.79-.38-.98-3.68-5.07-3.15-10.22-.65-15.61,.99-2.14,1.56-4.6,1.79-6.96,.87-8.87,1.53-17.77,2.26-26.66,.11-1.34,.18-2.68,.3-4.41Zm3.3,104.63c.46,1.12,.63,2.57,1.28,2.83,.68,.28,1.84-.54,2.75-.96,.38-.17,.68-.53,.98-.84,1.95-1.99,3.86-4.02,5.86-5.95,.47-.45,1.26-.91,1.85-.85,3.32,.34,6.65,.72,9.93,1.34,2.68,.51,4.54,2.42,5.45,4.86,.79,2.13-1.27,3.27-2.51,4.55-1.46,1.51-3.19,2.76-4.58,4.33-1.97,2.23-1.49,3.41,1.38,3.96,.61,.12,1.23,.15,1.84,.24,3.47,.51,7.02,.61,10.22,2.41,.51,.29,1.87-.14,2.32-.68,2.19-2.6,4.29-5.28,6.26-8.05,1.56-2.18,1.35-3.25-.91-4.78-2.51-1.7-5.14-3.22-7.73-4.78-7.85-4.74-16.33-7.63-25.46-8.54-.63-.06-1.54,.14-1.94,.57-1.72,1.87-3.41,3.77-4.87,5.84-.93,1.32-1.42,2.94-2.13,4.5Zm3.9,59.95l-.78-.37c-3.65,4.45-6.7,9.29-8.89,14.65-.19,.46-.09,1.46,.22,1.64,2.09,1.25,4.25,2.39,6.45,3.45,.38,.18,1.14-.07,1.54-.37,2.48-1.85,4.17-4.36,5.65-7.04-.5,.06-.88,.23-1.26,.42-3.48,1.68-6.76-.37-6.75-4.24,0-2.25,1.23-3.94,2.53-5.63,.57-.74,.88-1.67,1.31-2.51Zm15.84-150.98c-3.63,1.89-6.11,4.52-8.61,7.83,.85,.05,1.15,.14,1.42,.07,2.54-.6,4.37,.53,5.73,2.49,1.12,1.62,2.04,3.39,3.05,5.08,.37,.62,.78,1.22,1.17,1.83l.49-.24c-1.06-5.57-2.12-11.14-3.25-17.07Zm4.8-100.33c-3.84,1.91-9.33,11.1-9.07,15.18,.05,.83,.53,1.63,.85,2.53,3.19-2.08,9.18-15.19,8.22-17.71Zm-17.61,132.85c3.75-3.04,3.89-8.6,.62-11.56-1.1-1-1.76-.37-1.97,.7-.72,3.68-.06,7.2,1.35,10.86Zm11.3,109.46l-.73,.07c-1.07,3.67-2.14,7.33-3.22,11,1.99-1.22,3.61-2.64,5.16-4.14,.36-.35,.74-1.04,.63-1.44-.52-1.86-1.21-3.67-1.84-5.5Zm4.94-120.23l-.35-.03c-1.11,3.13-2.27,6.25-3.29,9.41-.17,.54,.03,1.64,.4,1.83,1.6,.83,3.18-.14,3.23-1.95,.08-3.09,.02-6.18,.02-9.26Zm-31.86-163.61c-2.39-1.19-4.52-1.06-5.53,0-1.19,1.26-1.77,4.39-.84,6.18,2.12-2.05,4.14-4.01,6.38-6.19Zm23.42,254.41l.52,.35c.81-.36,1.76-.55,2.37-1.11,.59-.55,1.27-1.6,1.11-2.22-.24-.88-1.17-1.6-1.9-2.29-.1-.1-.98,.28-1.06,.56-.42,1.55-.71,3.14-1.04,4.72Zm-14.72-149.82c-1.18,1.98-3.04,3.18-2.63,5.6,2.17-1.06,3.01-2.79,2.63-5.6Z"/></g><text class="l" transform="translate(384.61 240.28)"><tspan x="0" y="0">Kyokushin Karaté</tspan><tspan x="0" y="72">club Goderville</tspan></text></g></g><g id="j"/></svg>